<svg width="718" height="16" viewBox="0 0 718 16" fill="none" xmlns="http://www.w3.org/2000/svg">
<path d="M4.21289 13H3.26367V6.92969C3.26367 6.69922 3.26367 6.50195 3.26367 6.33789C3.26758 6.16992 3.27148 6.01758 3.27539 5.88086C3.2832 5.74023 3.29297 5.59766 3.30469 5.45312C3.18359 5.57812 3.07031 5.68555 2.96484 5.77539C2.85938 5.86133 2.72852 5.96875 2.57227 6.09766L1.59375 6.88281L1.08398 6.2207L3.4043 4.43359H4.21289V13ZM13.1191 8.70508C13.1191 9.40039 13.0664 10.0215 12.9609 10.5684C12.8555 11.1152 12.6895 11.5781 12.4629 11.957C12.2363 12.3359 11.9434 12.625 11.584 12.8242C11.2246 13.0195 10.793 13.1172 10.2891 13.1172C9.65234 13.1172 9.125 12.9434 8.70703 12.5957C8.29297 12.248 7.98242 11.7461 7.77539 11.0898C7.57227 10.4297 7.4707 9.63477 7.4707 8.70508C7.4707 7.79102 7.5625 7.00586 7.74609 6.34961C7.93359 5.68945 8.23438 5.18359 8.64844 4.83203C9.0625 4.47656 9.60938 4.29883 10.2891 4.29883C10.9336 4.29883 11.4648 4.47461 11.8828 4.82617C12.3008 5.17383 12.6113 5.67773 12.8145 6.33789C13.0176 6.99414 13.1191 7.7832 13.1191 8.70508ZM8.44922 8.70508C8.44922 9.50195 8.50977 10.166 8.63086 10.6973C8.75195 11.2285 8.94727 11.627 9.2168 11.8926C9.49023 12.1543 9.84766 12.2852 10.2891 12.2852C10.7305 12.2852 11.0859 12.1543 11.3555 11.8926C11.6289 11.6309 11.8262 11.2344 11.9473 10.7031C12.0723 10.1719 12.1348 9.50586 12.1348 8.70508C12.1348 7.91992 12.0742 7.26367 11.9531 6.73633C11.832 6.20508 11.6367 5.80664 11.3672 5.54102C11.0977 5.27148 10.7383 5.13672 10.2891 5.13672C9.83984 5.13672 9.48047 5.27148 9.21094 5.54102C8.94141 5.80664 8.74609 6.20508 8.625 6.73633C8.50781 7.26367 8.44922 7.91992 8.44922 8.70508ZM14.6133 12.3906C14.6133 12.1172 14.6797 11.9238 14.8125 11.8105C14.9453 11.6934 15.1074 11.6348 15.2988 11.6348C15.498 11.6348 15.666 11.6934 15.8027 11.8105C15.9395 11.9238 16.0078 12.1172 16.0078 12.3906C16.0078 12.6602 15.9395 12.8574 15.8027 12.9824C15.666 13.1035 15.498 13.1641 15.2988 13.1641C15.1074 13.1641 14.9453 13.1035 14.8125 12.9824C14.6797 12.8574 14.6133 12.6602 14.6133 12.3906ZM14.6133 7.19336C14.6133 6.91211 14.6797 6.71484 14.8125 6.60156C14.9453 6.48438 15.1074 6.42578 15.2988 6.42578C15.498 6.42578 15.666 6.48438 15.8027 6.60156C15.9395 6.71484 16.0078 6.91211 16.0078 7.19336C16.0078 7.45898 15.9395 7.65234 15.8027 7.77344C15.666 7.89453 15.498 7.95508 15.2988 7.95508C15.1074 7.95508 14.9453 7.89453 14.8125 7.77344C14.6797 7.65234 14.6133 7.45898 14.6133 7.19336ZM23.1387 8.70508C23.1387 9.40039 23.0859 10.0215 22.9805 10.5684C22.875 11.1152 22.709 11.5781 22.4824 11.957C22.2559 12.3359 21.9629 12.625 21.6035 12.8242C21.2441 13.0195 20.8125 13.1172 20.3086 13.1172C19.6719 13.1172 19.1445 12.9434 18.7266 12.5957C18.3125 12.248 18.002 11.7461 17.7949 11.0898C17.5918 10.4297 17.4902 9.63477 17.4902 8.70508C17.4902 7.79102 17.582 7.00586 17.7656 6.34961C17.9531 5.68945 18.2539 5.18359 18.668 4.83203C19.082 4.47656 19.6289 4.29883 20.3086 4.29883C20.9531 4.29883 21.4844 4.47461 21.9023 4.82617C22.3203 5.17383 22.6309 5.67773 22.834 6.33789C23.0371 6.99414 23.1387 7.7832 23.1387 8.70508ZM18.4688 8.70508C18.4688 9.50195 18.5293 10.166 18.6504 10.6973C18.7715 11.2285 18.9668 11.627 19.2363 11.8926C19.5098 12.1543 19.8672 12.2852 20.3086 12.2852C20.75 12.2852 21.1055 12.1543 21.375 11.8926C21.6484 11.6309 21.8457 11.2344 21.9668 10.7031C22.0918 10.1719 22.1543 9.50586 22.1543 8.70508C22.1543 7.91992 22.0938 7.26367 21.9727 6.73633C21.8516 6.20508 21.6562 5.80664 21.3867 5.54102C21.1172 5.27148 20.7578 5.13672 20.3086 5.13672C19.8594 5.13672 19.5 5.27148 19.2305 5.54102C18.9609 5.80664 18.7656 6.20508 18.6445 6.73633C18.5273 7.26367 18.4688 7.91992 18.4688 8.70508ZM27.0527 7.76172C27.6348 7.76172 28.1406 7.86133 28.5703 8.06055C29 8.25586 29.332 8.54102 29.5664 8.91602C29.8047 9.29102 29.9238 9.74609 29.9238 10.2812C29.9238 10.8672 29.7969 11.373 29.543 11.7988C29.2891 12.2207 28.9238 12.5469 28.4473 12.7773C27.9707 13.0039 27.4004 13.1172 26.7363 13.1172C26.291 13.1172 25.877 13.0781 25.4941 13C25.1113 12.9219 24.7891 12.8047 24.5273 12.6484V11.7227C24.8125 11.8945 25.1582 12.0312 25.5645 12.1328C25.9707 12.2344 26.3652 12.2852 26.748 12.2852C27.1816 12.2852 27.5605 12.2168 27.8848 12.0801C28.2129 11.9395 28.4668 11.7285 28.6465 11.4473C28.8301 11.1621 28.9219 10.8047 28.9219 10.375C28.9219 9.80469 28.7461 9.36523 28.3945 9.05664C28.0469 8.74414 27.4961 8.58789 26.7422 8.58789C26.5 8.58789 26.2344 8.60742 25.9453 8.64648C25.6562 8.68555 25.418 8.72852 25.2305 8.77539L24.7383 8.45312L25.0664 4.43359H29.3262V5.32422H25.8984L25.6816 7.9082C25.8301 7.87695 26.0215 7.8457 26.2559 7.81445C26.4902 7.7793 26.7559 7.76172 27.0527 7.76172Z" fill="white"/>
<rect opacity="0.35" x="39" y="6" width="640" height="4" rx="2" fill="white"/>
<rect x="39" y="6" width="350" height="4" rx="2" fill="white"/>
<path d="M691.213 13H690.264V6.92969C690.264 6.69922 690.264 6.50195 690.264 6.33789C690.268 6.16992 690.271 6.01758 690.275 5.88086C690.283 5.74023 690.293 5.59766 690.305 5.45312C690.184 5.57812 690.07 5.68555 689.965 5.77539C689.859 5.86133 689.729 5.96875 689.572 6.09766L688.594 6.88281L688.084 6.2207L690.404 4.43359H691.213V13ZM697.289 4.31055C697.785 4.31055 698.225 4.38867 698.607 4.54492C698.99 4.70117 699.289 4.93164 699.504 5.23633C699.723 5.53711 699.832 5.9082 699.832 6.34961C699.832 6.69727 699.756 7.00195 699.604 7.26367C699.455 7.52148 699.254 7.74805 699 7.94336C698.746 8.13477 698.465 8.30664 698.156 8.45898C698.523 8.62695 698.854 8.81641 699.146 9.02734C699.443 9.23828 699.678 9.48633 699.85 9.77148C700.021 10.0566 700.107 10.3945 700.107 10.7852C700.107 11.2656 699.99 11.6816 699.756 12.0332C699.525 12.3809 699.201 12.6484 698.783 12.8359C698.365 13.0234 697.875 13.1172 697.312 13.1172C696.707 13.1172 696.191 13.0273 695.766 12.8477C695.344 12.6641 695.021 12.4023 694.799 12.0625C694.58 11.7188 694.471 11.3066 694.471 10.8262C694.471 10.4316 694.555 10.0898 694.723 9.80078C694.891 9.50781 695.113 9.25586 695.391 9.04492C695.668 8.83398 695.971 8.65625 696.299 8.51172C696.014 8.35547 695.752 8.17773 695.514 7.97852C695.279 7.7793 695.092 7.54688 694.951 7.28125C694.814 7.01172 694.746 6.69922 694.746 6.34375C694.746 5.91016 694.855 5.54297 695.074 5.24219C695.297 4.9375 695.6 4.70703 695.982 4.55078C696.369 4.39062 696.805 4.31055 697.289 4.31055ZM695.426 10.832C695.426 11.2695 695.58 11.6309 695.889 11.916C696.197 12.1973 696.664 12.3379 697.289 12.3379C697.883 12.3379 698.342 12.1973 698.666 11.916C698.99 11.6309 699.152 11.2578 699.152 10.7969C699.152 10.5117 699.078 10.2617 698.93 10.0469C698.781 9.82812 698.57 9.63281 698.297 9.46094C698.023 9.28906 697.701 9.13281 697.33 8.99219L697.119 8.91602C696.76 9.06445 696.453 9.23047 696.199 9.41406C695.949 9.59375 695.758 9.79883 695.625 10.0293C695.492 10.2598 695.426 10.5273 695.426 10.832ZM697.277 5.10742C696.816 5.10742 696.439 5.21875 696.146 5.44141C695.854 5.66016 695.707 5.97656 695.707 6.39062C695.707 6.6875 695.777 6.93945 695.918 7.14648C696.062 7.34961 696.258 7.52539 696.504 7.67383C696.75 7.81836 697.025 7.95312 697.33 8.07812C697.627 7.95312 697.891 7.81641 698.121 7.66797C698.352 7.51562 698.533 7.33594 698.666 7.12891C698.799 6.92188 698.865 6.67383 698.865 6.38477C698.865 5.9707 698.719 5.6543 698.426 5.43555C698.137 5.2168 697.754 5.10742 697.277 5.10742ZM701.613 12.3906C701.613 12.1172 701.68 11.9238 701.812 11.8105C701.945 11.6934 702.107 11.6348 702.299 11.6348C702.498 11.6348 702.666 11.6934 702.803 11.8105C702.939 11.9238 703.008 12.1172 703.008 12.3906C703.008 12.6602 702.939 12.8574 702.803 12.9824C702.666 13.1035 702.498 13.1641 702.299 13.1641C702.107 13.1641 701.945 13.1035 701.812 12.9824C701.68 12.8574 701.613 12.6602 701.613 12.3906ZM701.613 7.19336C701.613 6.91211 701.68 6.71484 701.812 6.60156C701.945 6.48438 702.107 6.42578 702.299 6.42578C702.498 6.42578 702.666 6.48438 702.803 6.60156C702.939 6.71484 703.008 6.91211 703.008 7.19336C703.008 7.45898 702.939 7.65234 702.803 7.77344C702.666 7.89453 702.498 7.95508 702.299 7.95508C702.107 7.95508 701.945 7.89453 701.812 7.77344C701.68 7.65234 701.613 7.45898 701.613 7.19336ZM709.775 6.43164C709.775 6.81445 709.701 7.14648 709.553 7.42773C709.404 7.70898 709.197 7.93945 708.932 8.11914C708.666 8.29492 708.354 8.41797 707.994 8.48828V8.53516C708.674 8.62109 709.184 8.83984 709.523 9.19141C709.867 9.54297 710.039 10.0039 710.039 10.5742C710.039 11.0703 709.922 11.5098 709.688 11.8926C709.457 12.2754 709.102 12.5762 708.621 12.7949C708.145 13.0098 707.533 13.1172 706.787 13.1172C706.334 13.1172 705.914 13.0801 705.527 13.0059C705.145 12.9355 704.777 12.8164 704.426 12.6484V11.7344C704.781 11.9102 705.168 12.0488 705.586 12.1504C706.004 12.248 706.408 12.2969 706.799 12.2969C707.58 12.2969 708.145 12.1426 708.492 11.834C708.84 11.5215 709.014 11.0957 709.014 10.5566C709.014 10.1855 708.916 9.88672 708.721 9.66016C708.529 9.42969 708.252 9.26172 707.889 9.15625C707.529 9.04688 707.096 8.99219 706.588 8.99219H705.732V8.16016H706.594C707.059 8.16016 707.453 8.0918 707.777 7.95508C708.102 7.81836 708.348 7.62695 708.516 7.38086C708.688 7.13086 708.773 6.83594 708.773 6.49609C708.773 6.0625 708.629 5.72852 708.34 5.49414C708.051 5.25586 707.658 5.13672 707.162 5.13672C706.857 5.13672 706.58 5.16797 706.33 5.23047C706.08 5.29297 705.846 5.37891 705.627 5.48828C705.408 5.59766 705.189 5.72461 704.971 5.86914L704.479 5.20117C704.791 4.95898 705.172 4.75 705.621 4.57422C706.07 4.39844 706.58 4.31055 707.15 4.31055C708.025 4.31055 708.682 4.50977 709.119 4.9082C709.557 5.30664 709.775 5.81445 709.775 6.43164ZM714.053 7.76172C714.635 7.76172 715.141 7.86133 715.57 8.06055C716 8.25586 716.332 8.54102 716.566 8.91602C716.805 9.29102 716.924 9.74609 716.924 10.2812C716.924 10.8672 716.797 11.373 716.543 11.7988C716.289 12.2207 715.924 12.5469 715.447 12.7773C714.971 13.0039 714.4 13.1172 713.736 13.1172C713.291 13.1172 712.877 13.0781 712.494 13C712.111 12.9219 711.789 12.8047 711.527 12.6484V11.7227C711.812 11.8945 712.158 12.0312 712.564 12.1328C712.971 12.2344 713.365 12.2852 713.748 12.2852C714.182 12.2852 714.561 12.2168 714.885 12.0801C715.213 11.9395 715.467 11.7285 715.646 11.4473C715.83 11.1621 715.922 10.8047 715.922 10.375C715.922 9.80469 715.746 9.36523 715.395 9.05664C715.047 8.74414 714.496 8.58789 713.742 8.58789C713.5 8.58789 713.234 8.60742 712.945 8.64648C712.656 8.68555 712.418 8.72852 712.23 8.77539L711.738 8.45312L712.066 4.43359H716.326V5.32422H712.898L712.682 7.9082C712.83 7.87695 713.021 7.8457 713.256 7.81445C713.49 7.7793 713.756 7.76172 714.053 7.76172Z" fill="white"/>
</svg>
